<svg xmlns="http://www.w3.org/2000/svg" xmlns:xlink="http://www.w3.org/1999/xlink" viewBox="0 0 135 35"><g id="ss1852176006_1"><path d="M 0 0 L 134.66 0 L 134.66 35.01 L 0 35.01 Z" fill="transparent"></path><path d="M 130.1 11.93 C 128.03 11.93 126.86 13.03 126.25 13.88 C 125.76 13.03 124.67 11.93 122.59 11.93 C 120.71 11.93 119.74 12.91 119.25 13.64 L 119.25 12.18 L 115.96 12.18 L 115.96 24.37 L 119.37 24.37 L 119.37 17.84 C 119.37 16.01 120.03 14.74 121.69 14.74 C 122.84 14.74 123.62 15.52 123.62 17.23 L 123.62 24.37 L 127.03 24.37 L 127.03 17.59 C 127.03 15.76 127.79 14.74 129.3 14.74 C 130.47 14.74 131.25 15.52 131.25 17.23 L 131.25 24.37 L 134.66 24.37 L 134.66 16.81 C 134.66 14.25 133.64 11.93 130.1 11.93 Z M 110.24 18.8 C 110.24 20.51 109.56 21.8 107.97 21.8 C 106.7 21.8 105.85 21 105.85 19.29 L 105.85 12.17 L 102.44 12.17 L 102.44 19.73 C 102.44 22.9 104.07 24.61 107 24.61 C 108.83 24.61 109.88 23.63 110.36 22.9 L 110.36 24.36 L 113.65 24.36 L 113.65 12.17 L 110.24 12.17 Z M 95.86 11.93 C 94.03 11.93 92.81 12.91 92.32 13.64 L 92.32 12.18 L 89.03 12.18 L 89.03 24.37 L 92.44 24.37 L 92.44 17.84 C 92.44 16.01 93.1 14.74 94.88 14.74 C 96.15 14.74 96.95 15.52 96.95 17.23 L 96.95 24.37 L 100.36 24.37 L 100.36 16.81 C 100.36 14.01 98.82 11.93 95.85 11.93 Z M 81.4 11.93 C 77.82 11.93 75.3 14.61 75.3 18.27 C 75.3 22.17 77.81 24.61 81.64 24.61 C 84.44 24.61 86.15 23.39 87.2 21.32 L 84.32 20.22 C 83.83 21.2 82.98 21.93 81.64 21.93 C 80.13 21.93 78.98 21.17 78.69 19.37 L 87.37 19.37 L 87.37 18.76 C 87.37 14.62 85.25 11.93 81.4 11.93 Z M 78.67 17.17 C 78.96 15.49 79.94 14.61 81.4 14.61 C 82.86 14.61 83.96 15.51 83.96 17.17 Z M 68.79 11.93 C 66.86 11.93 65.57 12.91 65.13 13.64 L 65.13 12.18 L 61.84 12.18 L 61.84 28.76 L 65.25 28.76 L 65.25 22.91 C 65.64 23.64 66.86 24.62 68.79 24.62 C 72.08 24.62 74.4 21.94 74.4 18.28 C 74.4 14.38 72.08 11.94 68.79 11.94 Z M 68.11 21.78 C 66.11 21.78 65.26 19.98 65.26 18.27 C 65.26 16.56 66.11 14.73 68.11 14.73 C 69.94 14.73 70.99 16.07 70.99 18.27 C 70.99 19.98 70.01 21.78 68.11 21.78 Z M 50.67 8.27 L 44.5 24.36 L 48.18 24.36 L 49.4 20.87 L 56.01 20.87 L 57.2 24.36 L 60.98 24.36 L 54.81 8.27 Z M 50.47 17.9 L 52.74 11.44 L 54.98 17.9 Z M 36.3 19.86 C 35.94 20.65 35.43 21.3 34.79 21.8 C 34.13 22.32 33.43 22.6 32.69 22.64 C 32.42 22.66 32.16 22.64 31.89 22.59 C 30.95 24.18 29.72 25.57 28.25 26.73 C 27.72 30.7 24.73 33.92 20.71 34.79 C 20.03 34.93 19.33 35.01 18.64 35.01 C 16.57 35.01 14.52 34.35 12.82 33.1 C 10.72 31.54 9.35 29.22 9.03 26.68 C 7.55 25.5 6.32 24.08 5.37 22.46 C 4.57 22.63 3.78 22.5 3.04 22.09 L 3.01 22.12 L 2.51 21.74 C 1.81 21.21 1.26 20.49 0.83 19.55 C 0.17 18.09 -0.09 16.51 0.03 14.71 C 0.12 13.35 0.43 12.17 0.97 11.1 C 1.39 10.29 1.89 9.67 2.49 9.21 C 3.06 8.77 3.67 8.51 4.31 8.43 C 4.51 8.4 4.72 8.39 4.93 8.41 C 6.62 5.09 9.22 2.69 12.65 1.25 C 16.59 -0.39 20.59 -0.41 24.54 1.19 L 25.65 1.64 L 25.62 1.67 C 28.57 3.12 30.83 5.35 32.37 8.33 C 33.04 8.3 33.69 8.47 34.3 8.83 L 34.34 8.79 L 34.91 9.27 C 34.91 9.27 34.94 9.3 34.96 9.31 L 35.48 9.76 L 35.45 9.8 C 35.92 10.33 36.3 10.97 36.57 11.7 C 37.61 14.5 37.52 17.24 36.3 19.86 Z" fill="rgb(255,255,255)"></path><path d="M 35.16 12.22 C 34.9 11.53 34.52 10.9 33.94 10.41 C 33.44 9.98 32.87 9.74 32.19 9.84 C 31.96 9.88 31.75 9.96 31.52 10.02 C 30.03 6.56 27.55 4.01 23.98 2.57 C 20.41 1.12 16.79 1.14 13.23 2.62 C 9.68 4.1 7.23 6.67 5.76 10.16 C 5.733 10.152 5.706 10.142 5.68 10.13 C 4.86 9.72 4.1 9.85 3.4 10.38 C 2.92 10.75 2.58 11.24 2.31 11.77 C 1.82 12.72 1.6 13.74 1.53 14.8 C 1.44 16.22 1.61 17.6 2.21 18.91 C 2.49 19.54 2.87 20.11 3.43 20.54 C 3.95 20.93 4.53 21.13 5.18 20.96 C 5.49 20.88 5.77 20.72 6.08 20.59 C 6.08 20.6 6.11 20.64 6.13 20.68 C 7.11 22.72 8.52 24.43 10.35 25.79 C 10.42 25.84 10.48 25.96 10.48 26.04 C 10.81 30.9 15.52 34.36 20.39 33.31 C 23.93 32.55 26.53 29.61 26.8 26.09 C 26.8 25.99 26.88 25.87 26.96 25.81 C 28.54 24.63 29.82 23.2 30.78 21.5 C 30.92 21.25 31.05 20.99 31.2 20.71 C 31.24 20.73 31.27 20.74 31.29 20.76 C 32.19 21.31 33.04 21.26 33.86 20.61 C 34.34 20.23 34.69 19.75 34.94 19.21 C 36.01 16.91 36.04 14.57 35.16 12.21 Z M 28.52 15.83 C 28.31 18.78 26.53 20.51 23.63 21.24 C 23.66 21.28 23.7 21.33 23.74 21.38 C 25.29 23.3 25.67 25.42 24.89 27.75 C 24.85 27.88 24.78 27.93 24.63 27.93 L 12.62 27.93 C 12.46 27.93 12.4 27.86 12.36 27.73 C 11.58 25.4 11.97 23.28 13.53 21.37 C 13.55 21.34 13.58 21.31 13.61 21.28 C 13.61 21.27 13.62 21.26 13.63 21.24 C 10.84 20.58 9.07 18.94 8.74 16.13 C 8.46 13.75 9.45 11.81 11.57 10.6 C 14.05 9.19 16.43 9.56 18.62 11.28 C 20.77 9.58 23.12 9.19 25.58 10.55 C 27.65 11.69 28.69 13.53 28.52 15.84 Z M 23.03 30.39 C 21.976 31.306 20.66 31.866 19.27 31.99 C 16.24 32.27 13.91 30.54 13.01 28.95 L 24.29 28.95 C 23.93 29.51 23.52 29.98 23.04 30.4 Z" fill="rgb(21,21,21)"></path><path d="M 25.58 10.54 C 23.12 9.19 20.77 9.58 18.62 11.27 C 16.43 9.55 14.05 9.17 11.57 10.59 C 9.45 11.8 8.45 13.74 8.74 16.12 C 9.07 18.93 10.84 20.57 13.63 21.23 C 13.63 21.24 13.63 21.26 13.61 21.27 C 13.59 21.3 13.56 21.33 13.53 21.36 C 11.97 23.28 11.59 25.4 12.36 27.72 C 12.4 27.85 12.46 27.92 12.62 27.92 L 24.63 27.92 C 24.78 27.92 24.84 27.87 24.89 27.74 C 25.68 25.42 25.3 23.3 23.74 21.37 C 23.7 21.32 23.66 21.27 23.63 21.23 C 26.53 20.51 28.31 18.78 28.52 15.82 C 28.69 13.51 27.65 11.67 25.58 10.53 Z M 17.25 23.6 C 16.93 23.6 16.66 23.33 16.66 23.02 C 16.66 22.69 16.93 22.43 17.26 22.43 C 17.59 22.43 17.85 22.69 17.85 23.01 C 17.85 23.34 17.58 23.61 17.25 23.6 Z M 20.06 23.6 C 19.74 23.6 19.47 23.34 19.46 23.02 C 19.46 22.69 19.72 22.42 20.06 22.42 C 20.38 22.42 20.65 22.68 20.66 23 C 20.66 23.33 20.39 23.6 20.06 23.6 Z M 24.07 19.13 C 22.94 19.49 21.89 19.3 20.87 18.78 C 19.96 18.32 19.26 17.63 18.64 16.85 C 18.15 16.24 17.7 15.6 17.21 14.99 C 16.78 14.46 16.27 14 15.67 13.66 C 15.1 13.34 14.5 13.16 13.84 13.33 C 12.81 13.59 12 14.67 12.11 15.65 C 12.23 16.75 13.19 17.66 14.3 17.7 C 14.95 17.72 15.52 17.48 16.03 17.11 C 16.32 16.9 16.59 16.66 16.88 16.44 C 17.13 16.24 17.18 16.24 17.35 16.49 C 17.6 16.83 17.84 17.18 18.08 17.52 C 17.09 18.52 15.96 19.23 14.54 19.34 C 13.58 19.41 12.71 19.09 11.97 18.48 C 10.9 17.6 10.31 16.48 10.47 15.1 C 10.74 12.77 13.29 10.88 15.9 11.97 C 17 12.43 17.87 13.18 18.6 14.08 C 19.03 14.6 19.4 15.16 19.81 15.69 C 20.21 16.2 20.66 16.66 21.17 17.07 C 21.84 17.6 22.6 17.75 23.43 17.63 C 23.88 17.56 24.23 17.3 24.54 16.99 C 25.62 15.93 25.3 13.98 23.63 13.41 C 22.88 13.16 22.09 13.27 21.41 13.74 C 21.06 13.98 20.73 14.26 20.4 14.52 C 20.31 14.59 20.23 14.66 20.11 14.76 C 19.86 14.38 19.62 14.02 19.39 13.66 C 19.29 13.5 19.28 13.33 19.44 13.2 C 20.31 12.48 21.21 11.83 22.38 11.69 C 24.43 11.45 26.28 12.71 26.71 14.64 C 27.15 16.62 26.06 18.48 24.07 19.12 Z M 24.28 28.95 C 23.175 30.69 21.323 31.817 19.27 32 C 16.24 32.28 13.91 30.55 13.01 28.96 L 24.29 28.96 Z" fill="rgb(255,255,255)"></path><path d="M 20.1 14.77 C 19.85 14.39 19.61 14.03 19.38 13.67 C 19.28 13.51 19.27 13.34 19.43 13.21 C 20.3 12.49 21.2 11.84 22.37 11.7 C 24.42 11.46 26.27 12.72 26.7 14.65 C 27.14 16.63 26.05 18.49 24.06 19.13 C 22.93 19.49 21.88 19.3 20.86 18.78 C 19.95 18.32 19.25 17.63 18.63 16.85 C 18.14 16.24 17.69 15.6 17.2 14.99 C 16.77 14.46 16.26 14 15.66 13.66 C 15.09 13.34 14.49 13.16 13.83 13.33 C 12.8 13.59 11.99 14.68 12.1 15.65 C 12.22 16.75 13.18 17.66 14.29 17.7 C 14.94 17.72 15.51 17.48 16.02 17.11 C 16.31 16.9 16.58 16.66 16.87 16.44 C 17.12 16.24 17.17 16.25 17.34 16.49 C 17.59 16.83 17.83 17.18 18.07 17.52 C 17.08 18.52 15.95 19.23 14.53 19.34 C 13.57 19.41 12.7 19.09 11.96 18.48 C 10.89 17.6 10.3 16.48 10.46 15.1 C 10.73 12.77 13.28 10.88 15.89 11.97 C 16.99 12.43 17.86 13.18 18.59 14.08 C 19.01 14.6 19.39 15.16 19.8 15.69 C 20.2 16.2 20.64 16.66 21.16 17.07 C 21.83 17.6 22.59 17.75 23.42 17.63 C 23.87 17.56 24.22 17.3 24.53 16.99 C 25.61 15.93 25.29 13.98 23.62 13.41 C 22.87 13.16 22.08 13.27 21.4 13.74 C 21.05 13.98 20.72 14.26 20.39 14.52 C 20.3 14.59 20.22 14.66 20.1 14.76 Z M 20.65 23 C 20.65 23.33 20.38 23.6 20.05 23.6 C 19.73 23.6 19.46 23.34 19.45 23.02 C 19.45 22.69 19.71 22.42 20.05 22.42 C 20.37 22.42 20.64 22.68 20.65 23 Z M 17.85 23.01 C 17.835 23.326 17.576 23.574 17.26 23.577 C 16.944 23.579 16.681 23.335 16.66 23.02 C 16.66 22.69 16.93 22.43 17.26 22.43 C 17.59 22.43 17.85 22.69 17.85 23.01 Z" fill="rgb(21,21,21)"></path></g></svg>